<svg width="24" height="24" viewBox="0 0 24 24" fill="none" xmlns="http://www.w3.org/2000/svg">
<path d="M12.3457 8.01562L16.4521 3.89355C16.6067 3.73902 16.7768 3.62485 16.9619 3.55078C17.1471 3.47671 17.341 3.43945 17.543 3.43945C17.7447 3.43948 17.9379 3.47674 18.123 3.55078C18.3084 3.62485 18.4784 3.73895 18.6328 3.89355L20.1064 5.41113C20.261 5.56555 20.3736 5.73561 20.4443 5.9209C20.5152 6.10596 20.5507 6.29933 20.5508 6.50098C20.5508 6.70288 20.5152 6.8925 20.4443 7.06934C20.3736 7.24615 20.261 7.41183 20.1064 7.56641L16.0195 11.6787L21.375 17.0537L17.0537 21.375L11.6787 16.0098L7.31055 20.3789H3.62109V16.6895L7.99023 12.3213L2.625 6.94629L6.94629 2.625L12.3457 8.01562ZM12.7344 14.9443L17.0449 19.2695L19.2695 17.0439L17.7363 15.5117L16.6113 16.6211L15.5615 15.5713L16.6709 14.4463L14.9443 12.7344L12.7344 14.9443ZM14.875 7.55176L5.11621 17.3262V18.8838H6.67383L16.4482 9.125L15.6748 8.34082L14.875 7.55176ZM4.72168 6.94629L9.05566 11.2656L11.2656 9.04004L9.54395 7.30469L8.41992 8.42871L7.36914 7.37891L8.47852 6.25391L6.94629 4.72168L4.72168 6.94629Z" fill="white"/>
</svg>
